# File created by Blade
# Date/Time:  Wed Sep 24 19:53:44 2014
# Frame Rate: 120.000 fps
#------------------------------------------------------
:FULLY-SPECIFIED
:DEGREES
835
root -6.718010 32.882032 -4.428490 9.044493 -6.406026 -1.528496
Spine -15.809927 -22.657309 4.547739
Head -3.907131 11.210700 20.686777
LeftShoulder 7.138083 -9.783433 29.027063
LeftArm 89.095054 -21.751969 -142.167401
LeftForeArm -55.746487 -0.000000 119.871855
LeftHand -15.622485 -0.000000 16.731335
LeftHandThumb1 -26.253704 0.000000 33.147579
RightShoulder -15.813104 12.640740 -15.765772
RightArm -9.323105 -25.487400 84.733757
RightForeArm -20.004190 -0.000000 17.645091
RightHand -5.918425 -0.000000 12.249836
RightHandThumb1 -24.326973 -0.000000 -32.862282
LeftUpLeg -1.512132 14.732060 4.988921
LeftLeg -1.850659 -0.000000 0.000000
LeftFoot -10.102222 6.438875 -19.334025
LeftToeBase 11.450520 -0.000000 -0.000000
RightUpLeg -6.145236 -1.496276 -2.338807
RightLeg 1.901636 -0.000000 -0.000000
RightFoot -7.254482 -2.188368 -14.696598
RightToeBase -1.184396 -0.000000 0.000000
836
root -6.716566 32.881750 -4.425707 9.050189 -6.400778 -1.529407
Spine -15.806597 -22.636945 4.553077
Head -3.906704 11.183843 20.618966
LeftShoulder 7.110378 -9.772327 29.010376
LeftArm 88.948789 -21.731062 -142.020899
LeftForeArm -55.498425 -0.000000 119.890224
LeftHand -15.622570 0.000000 16.940865
LeftHandThumb1 -26.253704 0.000000 33.147579
RightShoulder -15.804794 12.629133 -15.766726
RightArm -9.308176 -25.537951 84.726835
RightForeArm -19.983575 -0.000000 17.683209
RightHand -5.913327 -0.000000 12.249947
RightHandThumb1 -24.326973 -0.000000 -32.862282
LeftUpLeg -1.509114 14.706921 4.987037
LeftLeg -1.860684 -0.000000 0.000000
LeftFoot -10.119438 6.464880 -19.332104
LeftToeBase 11.453980 -0.000000 -0.000000
RightUpLeg -6.137069 -1.501935 -2.339878
RightLeg 1.884035 -0.000000 -0.000000
RightFoot -7.261447 -2.196424 -14.738928
RightToeBase -1.126108 -0.000000 0.000000
837
root -6.714731 32.881459 -4.423263 9.049740 -6.397569 -1.529358
Spine -15.789222 -22.603317 4.549717
Head -3.906060 11.184711 20.567148
LeftShoulder 7.079300 -9.765583 29.000254
LeftArm 88.828345 -21.699126 -141.982054
LeftForeArm -55.644963 0.000000 119.847351
LeftHand -15.817256 -0.000000 16.747080
LeftHandThumb1 -26.253704 0.000000 33.147579
RightShoulder -15.797549 12.633919 -15.774058
RightArm -9.316675 -25.560090 84.733948
RightForeArm -20.052577 -0.000000 17.721262
RightHand -5.923579 -0.000000 12.224603
RightHandThumb1 -24.326973 -0.000000 -32.862282
LeftUpLeg -1.503615 14.668643 4.985962
LeftLeg -1.862319 -0.000000 0.000000
LeftFoot -10.131580 6.490431 -19.345039
LeftToeBase 11.479873 -0.000000 -0.000000
RightUpLeg -6.131762 -1.505803 -2.342867
RightLeg 1.883968 -0.000000 -0.000000
RightFoot -7.249556 -2.204986 -14.731243
RightToeBase -1.183994 -0.000000 0.000000
838
root -6.712858 32.880999 -4.420657 9.050656 -6.386180 -1.530234
Spine -15.770659 -22.567500 4.543586
Head -3.911017 11.191737 20.509226
LeftShoulder 7.066244 -9.758346 28.995881
LeftArm 88.717736 -21.653151 -141.927074
LeftForeArm -55.639096 -0.000000 119.858802
LeftHand -15.829196 -0.000000 16.887898
LeftHandThumb1 -26.253704 0.000000 33.147579
RightShoulder -15.803955 12.641477 -15.783677
RightArm -9.327744 -25.588805 84.731489
RightForeArm -20.048273 0.000000 17.766508
RightHand -5.943928 -0.000000 12.262674
RightHandThumb1 -24.326973 -0.000000 -32.862282
LeftUpLeg -1.500049 14.630996 4.986768
LeftLeg -1.861980 -0.000000 0.000000
LeftFoot -10.141929 6.514336 -19.345268
LeftToeBase 11.249277 -0.000000 -0.000000
RightUpLeg -6.120774 -1.509202 -2.346726
RightLeg 1.873623 -0.000000 -0.000000
RightFoot -7.257263 -2.204859 -14.710254
RightToeBase -1.162591 -0.000000 0.000000
839
root -6.710213 32.880352 -4.418812 9.053163 -6.368511 -1.527317
Spine -15.754255 -22.529763 4.538091
Head -3.905440 11.190332 20.455235
LeftShoulder 7.059211 -9.743140 28.989327
LeftArm 88.622753 -21.577130 -141.881021
LeftForeArm -55.573356 -0.000000 119.864858
LeftHand -15.800257 -0.000000 16.895841
LeftHandThumb1 -26.253704 0.000000 33.147579
RightShoulder -15.825430 12.643774 -15.806281
RightArm -9.330246 -25.637921 84.739132
RightForeArm -20.040194 -0.000000 17.812629
RightHand -5.990078 -0.000000 12.264850
RightHandThumb1 -24.326973 -0.000000 -32.862282
LeftUpLeg -1.500882 14.617566 4.979661
LeftLeg -1.871326 -0.000000 0.000000
LeftFoot -10.144084 6.523424 -19.325913
LeftToeBase 11.431838 -0.000000 -0.000000
RightUpLeg -6.118304 -1.536414 -2.351605
RightLeg 1.871792 -0.000000 -0.000000
RightFoot -7.270493 -2.181127 -14.700111
RightToeBase -1.119447 -0.000000 0.000000
840
root -6.707347 32.880044 -4.416899 9.055752 -6.352551 -1.526987
Spine -15.740453 -22.500349 4.536951
Head -3.880439 11.210922 20.400854
LeftShoulder 7.063198 -9.754295 28.997344
LeftArm 88.508904 -21.551139 -141.829569
LeftForeArm -55.505300 -0.000000 119.899901
LeftHand -15.617047 0.000000 16.909315
LeftHandThumb1 -26.253704 0.000000 33.147579
RightShoulder -15.832257 12.623095 -15.815595
RightArm -9.289269 -25.659093 84.716412
RightForeArm -19.972909 0.000000 17.818107
RightHand -5.881989 -0.000000 12.313155
RightHandThumb1 -24.326973 -0.000000 -32.862282
LeftUpLeg -1.502320 14.592475 4.974652
LeftLeg -1.874909 -0.000000 0.000000
LeftFoot -10.157320 6.526756 -19.360285
LeftToeBase 11.495054 -0.000000 -0.000000
RightUpLeg -6.108074 -1.540838 -2.357719
RightLeg 1.854563 -0.000000 -0.000000
RightFoot -7.254898 -2.187191 -14.682117
RightToeBase -1.195116 -0.000000 0.000000
841
root -6.705588 32.879284 -4.414289 9.056063 -6.330491 -1.528837
Spine -15.728632 -22.470175 4.534992
Head -3.849687 11.233812 20.345739
LeftShoulder 7.077749 -9.755081 29.008385
LeftArm 88.414236 -21.525227 -141.806829
LeftForeArm -55.438488 -0.000000 119.915791
LeftHand -15.541006 -0.000000 16.833412
LeftHandThumb1 -26.253704 0.000000 33.147579
RightShoulder -15.839154 12.634359 -15.835669
RightArm -9.302875 -25.693057 84.721570
RightForeArm -19.920085 -0.000000 17.875139
RightHand -5.895861 0.000000 12.342018
RightHandThumb1 -24.326973 -0.000000 -32.862282
LeftUpLeg -1.497946 14.595147 4.975039
LeftLeg -1.883788 -0.000000 0.000000
LeftFoot -10.150568 6.516010 -19.317105
LeftToeBase 11.451760 -0.000000 -0.000000
RightUpLeg -6.102454 -1.564393 -2.355383
RightLeg 1.857836 -0.000000 -0.000000
RightFoot -7.267572 -2.189084 -14.671986
RightToeBase -1.151899 -0.000000 0.000000
842
root -6.701783 32.878947 -4.412179 9.057215 -6.315354 -1.518496
Spine -15.723762 -22.440489 4.520012
Head -3.798060 11.263031 20.292510
LeftShoulder 7.109644 -9.727616 29.016984
LeftArm 88.350444 -21.501216 -141.783112
LeftForeArm -55.320354 -0.000000 119.933856
LeftHand -15.530177 -0.000000 16.694445
LeftHandThumb1 -26.253704 0.000000 33.147579
RightShoulder -15.837124 12.621234 -15.845690
RightArm -9.288199 -25.731282 84.720372
RightForeArm -19.932587 -0.000000 17.903435
RightHand -5.889158 -0.000000 12.283014
RightHandThumb1 -24.326973 -0.000000 -32.862282
LeftUpLeg -1.496558 14.581575 4.958919
LeftLeg -1.890043 -0.000000 0.000000
LeftFoot -10.156230 6.520649 -19.309948
LeftToeBase 11.279783 -0.000000 -0.000000
RightUpLeg -6.097922 -1.579860 -2.369887
RightLeg 1.855871 -0.000000 -0.000000
RightFoot -7.272183 -2.189580 -14.681030
RightToeBase -1.165168 -0.000000 0.000000
